<?xml version="1.0" encoding="UTF-8" standalone="no"?>
<!-- Created with Inkscape (http://www.inkscape.org/) -->

<svg
   version="1.1"
   id="svg1"
   width="794.66669"
   height="661.33331"
   viewBox="0 0 794.66669 661.33331"
   sodipodi:docname="Logo-luxe.svg"
   inkscape:version="1.4.3 (0d15f75042, 2025-12-25)"
   xmlns:inkscape="http://www.inkscape.org/namespaces/inkscape"
   xmlns:sodipodi="http://sodipodi.sourceforge.net/DTD/sodipodi-0.dtd"
   xmlns="http://www.w3.org/2000/svg"
   xmlns:svg="http://www.w3.org/2000/svg">
  <defs
     id="defs1" />
  <sodipodi:namedview
     id="namedview1"
     pagecolor="#ffffff"
     bordercolor="#000000"
     borderopacity="0.25"
     inkscape:showpageshadow="2"
     inkscape:pageopacity="0.0"
     inkscape:pagecheckerboard="0"
     inkscape:deskcolor="#d1d1d1"
     inkscape:zoom="1.155242"
     inkscape:cx="378.70854"
     inkscape:cy="332.3979"
     inkscape:window-width="1920"
     inkscape:window-height="975"
     inkscape:window-x="0"
     inkscape:window-y="0"
     inkscape:window-maximized="1"
     inkscape:current-layer="g1" />
  <g
     inkscape:groupmode="layer"
     inkscape:label="Image"
     id="g1">
    <path
       style="fill:#000000"
       d="M 107.14597,579.48455 C 89.610815,572.96693 77.224291,560.04365 70.395024,541.14104 l -3.061689,-8.47439 -0.404953,-97.33333 C 66.506231,333.8663 66.978218,322.39491 72.04856,310.88997 78.488362,296.27763 72.801488,301.35197 192,203.85861 308.60292,108.48823 330.68827,90.709845 335.79903,88.102531 c 13.57896,-6.927471 30.9158,-6.79525 44.32886,0.338078 4.37053,2.32433 21.8797,15.676541 38.90927,29.671591 30.63871,25.17915 109.6392,89.85108 178.62662,146.22857 19.61507,16.02971 37.73045,31.85158 40.2564,35.15971 8.53664,11.18011 9.41317,15.96549 9.41317,51.39094 v 31.5581 l -3.33333,3.61374 c -3.70653,4.01832 -10.35734,7.27006 -14.86955,7.27006 -5.05161,0 -13.73209,-5.07281 -16.49291,-9.63834 -2.358,-3.89939 -2.68533,-7.30214 -3.08844,-32.10589 l -0.45089,-27.74422 -4.21578,-3.88808 c -2.31867,-2.13844 -26.11577,-21.78397 -52.88244,-43.65674 -26.76666,-21.87276 -80.38049,-65.68823 -119.14183,-97.36769 -62.01656,-50.68585 -71.01687,-57.59903 -74.98849,-57.59903 -5.27762,0 8.0962,-10.57569 -140.53635,111.13262 -59.03334,48.33966 -108.37938,89.46014 -109.65788,91.37883 -2.15862,3.23952 -2.32309,10.53161 -2.30406,102.15521 0.0194,93.20385 0.15721,98.96195 2.48975,103.99999 2.87405,6.20766 8.55604,11.89899 13.89232,13.91518 5.27171,1.99179 146.27105,1.94177 155.84758,-0.0553 23.59591,-4.92062 42.95792,-22.99992 51.02883,-47.64823 2.95458,-9.0232 8.4511,-15.31447 15.12746,-17.31476 3.80624,-1.14037 34.04698,-1.55564 111.7307,-1.53428 102.14931,0.0281 106.74295,0.13413 112.1511,2.58915 10.40706,4.72425 11.01684,7.00215 11.02256,41.17584 0.006,33.45527 -0.35709,35.00339 -9.3898,40.08005 -5.99646,3.3702 -11.92974,3.55435 -18.22779,0.56572 -8.29858,-3.93793 -9.70011,-7.99657 -9.70578,-28.10671 l -0.005,-17.66667 h -89.38072 -89.38072 l -2.55888,5.96962 c -9.27087,21.62806 -29.05499,41.29282 -52.22599,51.9109 -19.02293,8.71724 -19.99525,8.79379 -110.71691,8.71668 l -81.73679,-0.0695 z m 504.71789,-18.51114 c -8.38274,-5.60004 -9.19278,-9.03787 -9.19511,-39.02424 -0.002,-25.05764 0.18431,-27.08708 2.99793,-32.66667 4.57221,-9.06697 11.32834,-11.94918 28.0098,-11.94918 12.14298,0 13.35314,-0.24173 16.38414,-3.27273 6.9503,-6.95029 1.98018,-17.84549 -8.33333,-18.26784 -2.78333,-0.11398 -55.76061,-0.29934 -117.72728,-0.41191 -188.69207,-0.34278 -181.50395,-0.19823 -186.80282,-3.75644 -3.41943,-2.29615 -5.51149,-5.49525 -8.53051,-13.04453 -8.49715,-21.24773 -19.31133,-33.79516 -36.41023,-42.24589 l -10.11814,-5.00066 h -17.40249 c -16.84201,0 -17.69501,0.13855 -26.48529,4.30203 -16.75127,7.93417 -29.83529,23.4547 -37.09054,43.99757 -3.84118,10.8761 -4.80221,32.75377 -1.96721,44.78314 2.81641,11.95048 2.69456,17.99231 -0.46744,23.17815 -3.80135,6.23439 -8.68341,8.91859 -16.22122,8.91859 -16.36971,0 -23.32834,-15.68418 -23.00268,-51.84615 0.20496,-22.75775 2.82088,-34.00015 12.40982,-53.33333 13.98009,-28.18661 35.10318,-46.49349 64.08875,-55.54418 8.52182,-2.66093 12.75925,-3.11697 28.66666,-3.08521 21.56974,0.0431 29.96358,1.86611 46.66667,10.13536 19.64297,9.72471 34.84066,24.48873 45.47409,44.17651 l 5.21246,9.65085 145.99007,0.66667 c 133.66247,0.61037 146.46979,0.85914 151.67137,2.94602 12.9316,5.18819 22.8929,14.67443 28.64754,27.28131 2.36571,5.18266 2.94302,8.91132 2.95816,19.106 0.0162,10.92477 -0.46068,13.67513 -3.46795,20 -1.91772,4.03333 -5.69394,9.86658 -8.3916,12.96276 -6.03987,6.93214 -21.36035,14.77591 -31.09413,15.91956 l -7,0.82246 -0.005,16.81427 c -0.004,14.42562 -0.38138,17.43161 -2.65448,21.1598 -5.76158,9.44974 -18.04163,12.48558 -26.81003,6.62791 z"
       id="path1" />
  </g>
</svg>
